<?xml version="1.0" encoding="UTF-8" standalone="no"?><!-- Generator: Gravit.io --><svg xmlns="http://www.w3.org/2000/svg" xmlns:xlink="http://www.w3.org/1999/xlink" style="isolation:isolate" viewBox="0 0 512 512" width="512pt" height="512pt"><circle vector-effect="non-scaling-stroke" cx="256" cy="256" r="256" fill="rgb(94,114,228)"/><path d=" M 301.175 367.028 L 261.038 287.341 L 229.837 287.341 L 229.837 367.028 L 188.675 367.028 L 188.675 153.747 L 260.159 153.747 L 260.159 153.747 Q 277.884 153.747 292.239 157.922 L 292.239 157.922 L 292.239 157.922 Q 306.595 162.097 316.775 170.153 L 316.775 170.153 L 316.775 170.153 Q 326.956 178.21 332.449 190.222 L 332.449 190.222 L 332.449 190.222 Q 337.942 202.233 337.942 218.054 L 337.942 218.054 L 337.942 218.054 Q 337.942 229.479 335.232 238.635 L 335.232 238.635 L 335.232 238.635 Q 332.522 247.79 327.469 255.041 L 327.469 255.041 L 327.469 255.041 Q 322.415 262.292 315.311 267.712 L 315.311 267.712 L 315.311 267.712 Q 308.206 273.132 299.417 277.087 L 299.417 277.087 L 345.267 365.124 L 345.267 367.028 L 301.175 367.028 L 301.175 367.028 Z  M 229.837 187.146 L 229.837 253.942 L 260.306 253.942 L 260.306 253.942 Q 277.737 253.942 287.186 245.08 L 287.186 245.08 L 287.186 245.08 Q 296.634 236.218 296.634 220.837 L 296.634 220.837 L 296.634 220.837 Q 296.634 204.87 287.405 196.008 L 287.405 196.008 L 287.405 196.008 Q 278.177 187.146 260.159 187.146 L 260.159 187.146 L 229.837 187.146 L 229.837 187.146 Z " fill="rgb(255,255,255)"/></svg>